<svg id="Layer_1" data-name="Layer 1" xmlns="http://www.w3.org/2000/svg" viewBox="0 0 548.86 453.74"><defs><style>.cls-1,.cls-12{fill:#451e56;}.cls-1,.cls-10,.cls-11,.cls-2,.cls-3,.cls-4,.cls-5,.cls-6,.cls-7,.cls-8,.cls-9{fill-rule:evenodd;}.cls-2{fill:#a65591;}.cls-3{fill:#b373a2;}.cls-4{fill:#c291b5;}.cls-5{fill:#5f406b;}.cls-6{fill:#8c6445;}.cls-7{fill:#f05159;}.cls-8{fill:#b18058;}.cls-9{fill:#f37771;}.cls-10{fill:#ef383e;}.cls-11{fill:#522f60;}</style></defs><path id="Fill-70" class="cls-1" d="M411.6,295.05s4.65-15.71.79-22.52-8.35-9.74-17.91-14.25-8.5-10.57-18.86-15.8-28.14,1.12-41.16,2.06-13.54-4.58-21.77-4.31-19.38,9.34-19.38,9.34,13.27-3.15,26.55,1.34,9.68,13.64,20.3,22.48l6.83,2.78Z"/><path id="Fill-76" class="cls-1" d="M427.63,383.87c-3-57.37-31.39-101.66-86.76-135.42l-1,1c55.07,33.58,83.3,77.63,86.3,134.67"/><path id="Fill-77" class="cls-2" d="M403.77,277.72c12.68,11.06,8.4,35.72,6.7,43.37-12.88-21.37-35.33-36-63.86-45.55a23.38,23.38,0,0,1-2.59-1.05"/><path id="Fill-71" class="cls-3" d="M428.83,298.18s-8.67-26.91-10.15-40.26-3.32-63.93,8.22-91.1,22.85-35.51,28.3-42.24,5.75-14,14.41-21.26,23.7-7.41,29.21-12.37c6.29-5.65,30.87-19.91,43.44-22.33,0,0-12.64,17.75-16.89,36.86s2.5,28.78-1.24,38.47-11.8,18.57-17.1,29.87S497.8,215,493.45,222.25c-31.82,21.52-53.5,52.86-65.89,93.61Z"/><path id="Fill-73" class="cls-1" d="M429.29,383.82a553.56,553.56,0,0,1-.17-77.38,405.68,405.68,0,0,1,12.38-75.92,326.58,326.58,0,0,1,28-71.14c.69-1.44,1.54-2.79,2.34-4.16l2.42-4.12,4.84-8.24c3.44-5.35,7.05-10.6,10.56-15.92l11.53-15.22,12.38-14.55c-4.24,4.75-8.52,9.47-12.72,14.27l-11.76,15.09c-3.59,5.27-7.27,10.49-10.79,15.81l-4.9,8.24L471,154.7c-.81,1.37-1.67,2.72-2.37,4.16a326.72,326.72,0,0,0-28.48,71.25,406.75,406.75,0,0,0-12.8,76.15,545.08,545.08,0,0,0,0,77.63Z"/><path id="Fill-72" class="cls-1" d="M428.55,386.76c.08-.5,8.95-50.07,39.82-52.3,16.22-1.21,20.69,24.33,20.74,24.59l1.93-.33a52.85,52.85,0,0,0-4.5-13.45c-4.49-8.9-10.82-13.3-18.32-12.77-13.46,1-24.93,10.65-33.17,28a113.35,113.35,0,0,0-8.44,25.95Z"/><path id="Fill-74" class="cls-4" d="M547.83,407.19s.48-10.11-5.35-16.3-16.3-5.71-20.1-8.8S516.91,374,512.86,372s-9,2-17.61-2.26-10.11-33.43-12-37.36-16.53-15.94-16.53-15.94a24.34,24.34,0,0,0,10.46,2.18c5.83-.15,19.27-10,22.84-9.43s13.8,8.8,15.59,11.54,3.33,10.11,11.3,17.36,12.61,11.42,14.28,15.83,5.35,9.4,5,12.84-.51,15,.17,17.47,4.25,16.79,1.49,23"/><path id="Fill-75" class="cls-2" d="M488.71,358.88s-.42-1.65-1.23-4.6c-2-7.36-7.19-20.51-19.52-19.62-13.24,1-22.15,9-28.45,19.55,0,0,4.29-8.61,3.6-13.24s-5.75-10.05-4.89-14.85,8-5.07,12.71-7.47,6.95-6.18,12.19-6.18,16.57,14.76,20,17.94,5.59,28.47,5.59,28.47"/><path id="Fill-60" class="cls-5" d="M447.38,453.49H412a12.93,12.93,0,0,1-12.87-11.77l-5.46-60.29h72.06l-5.45,60.29a13,13,0,0,1-12.88,11.77"/><g id="Group-14"><path id="Fill-1" class="cls-6" d="M431.83,432.69,402.58,447.9a3.19,3.19,0,0,1-4.3-1.37l0-.08-28.77-57.89L276,200.39l34.95-18.29,93.53,188.24,28.77,57.91a3.34,3.34,0,0,1-1.41,4.44"/><path id="Fill-3" class="cls-1" d="M432.51,418.22l-3.9-7.84-40.76,21.19,11,22.17,1.44-.75,12.34-6.41-1-3.48,9.17-.77,18.79-9.76,15.82-8.22-2.61-5.26c-1.84-3.69-14,1.05-20.35-.87"/><path id="Fill-6" class="cls-7" d="M253.12,174.7,357.29,394.78l23.81,50.49,17.23-9,1.24-9.82,8.15,4.93L443,413.06,417.17,363.6,312.8,160.67S252.85,174.15,253.12,174.7Z"/><path id="Fill-8" class="cls-8" d="M110.18,428.78l-11.92-31.4a3.2,3.2,0,0,1,1.48-4.16,168.53,168.53,0,0,0,47.41-29.73c22.43-20.19,39.55-46.72,50.86-76.33.76-1.82,1.4-3.71,2.07-5.58l1-2.81c.33-.94.69-1.86,1-2.82,1.2-3.81,2.49-7.58,3.53-11.46,2.26-7.69,4-15.56,5.7-23.48a350.7,350.7,0,0,0,6.12-48.44L256.6,195a388.94,388.94,0,0,1-6.85,54.19c-1.86,9-3.9,17.88-6.48,26.7-1.2,4.43-2.67,8.79-4.06,13.17-.33,1.1-.74,2.18-1.12,3.27l-1.16,3.25c-.78,2.17-1.53,4.35-2.4,6.48L232,308.45c-.41,1.08-.91,2.13-1.36,3.19l-1.4,3.17-1.4,3.18c-.45,1.06-1,2.09-1.49,3.13l-3,6.25c-1.05,2.07-2.18,4.1-3.26,6.14l-1.65,3.06c-.55,1-1.17,2-1.75,3l-3.55,6c-1.24,2-2.52,3.91-3.79,5.87l-1.91,2.92-2,2.85-4.07,5.68L197,368.4c-.72.92-1.44,1.84-2.17,2.74l-2.29,2.65c-1.53,1.76-3.05,3.54-4.6,5.28l-4.84,5.06c-.81.84-1.6,1.7-2.44,2.52l-2.54,2.41c-1.7,1.6-3.38,3.22-5.1,4.8a207.28,207.28,0,0,1-58.4,36.68,3.28,3.28,0,0,1-4.34-1.63l-.06-.13"/><path id="Fill-10" class="cls-1" d="M124.82,429.35l4.28-2c.36-.17.72-.33,1.07-.51l1.05-.57,2.09-1.12-20.93-41.66-2.33,1.27c-.78.4-1.6.75-2.39,1.14l-4.8,2.27-1.2.57-1.23.5-2.47,1-4.92,2,.56,1.56,4.81,13.3,3.3-.61q0,4.69-.11,9.44l7.32,20.25,6.16,17.06,6.33-2.58c2.22-.91,2.47-4.59,2.46-8.83s-.31-9.18.95-12.48"/><path id="Fill-12" class="cls-9" d="M209.28,160.67a382.43,382.43,0,0,1-4.53,56.14l-.53,3.38c-.17,1.13-.33,2.26-.55,3.37l-1.23,6.71c-.42,2.23-.93,4.43-1.38,6.65-.24,1.1-.45,2.22-.72,3.31l-.8,3.28-.79,3.28c-.14.55-.26,1.1-.4,1.64l-.45,1.62-1.77,6.47c-1.32,4.25-2.57,8.53-4.06,12.67L191,272.33c-.35,1-.78,2.05-1.16,3.08l-1.17,3.07-.59,1.53-.29.77-.32.75-2.54,6c-.4,1-.89,2-1.34,3l-1.37,2.93c-.47,1-.9,2-1.38,2.92l-1.48,2.85-1.46,2.86c-.25.47-.48,1-.74,1.42l-.79,1.38-3.13,5.54-3.34,5.35-.82,1.34-.89,1.29L166.42,321l-1.76,2.58c-.61.84-1.24,1.66-1.86,2.48l-1.86,2.48c-.62.82-1.22,1.66-1.89,2.43l-3.91,4.74A175.91,175.91,0,0,1,138,352.74l-4.32,3.48-1.08.88c-.18.15-.35.3-.54.44l-.56.4-2.25,1.62L127,361.19l-1.12.81c-.37.27-.77.5-1.16.76l-4.64,3a152.48,152.48,0,0,1-19.61,10.29l8,18,4.48,1c.75.15,1.52.33,2.26.45l2.25.36-1.08,2c-.36.7-.76,1.33-1.14,2l-2.38,4,16.51,36.9A219.74,219.74,0,0,0,157,424.67l6.54-4.66c.54-.4,1.1-.77,1.62-1.18l1.58-1.25,3.15-2.5,3.14-2.51.78-.62.76-.66,1.51-1.33,6-5.34a242.79,242.79,0,0,0,23.45-25.38l5.21-6.86c.88-1.13,1.68-2.31,2.5-3.49l2.43-3.53c.81-1.18,1.63-2.35,2.42-3.54l2.27-3.62,2.27-3.62,1.12-1.82,1.06-1.85,4.2-7.4L233,336l1-1.89c.32-.63.6-1.27.9-1.9l1.78-3.83,1.77-3.83c.58-1.28,1.1-2.58,1.65-3.87l1.63-3.87c.53-1.29,1.1-2.58,1.58-3.89l3-7.83.36-1,.34-1,.67-2,1.34-3.95c.43-1.32.9-2.63,1.3-3.95l1.2-4c1.66-5.28,3-10.62,4.42-15.95l1.86-8,.47-2c.15-.67.27-1.34.41-2l.81-4,.81-4c.26-1.34.47-2.69.71-4,.45-2.69.94-5.38,1.35-8.07l1.15-8.08c.21-1.35.35-2.69.5-4l.47-4.05a425.86,425.86,0,0,0,2.38-64.27Z"/></g><path id="Waist" class="cls-10" d="M209.38,156.68c0,27.53,23.14,49.84,51.7,49.84s51.71-22.31,51.71-49.84"/><g id="Right-Arm"><path id="SKIN" class="cls-8" d="M383.86,7.85v0l-.27-1a4.47,4.47,0,0,1,3.15-5.36A4.2,4.2,0,0,1,388,1.23h.12a4.38,4.38,0,0,1,3.6,2.07h0A3.91,3.91,0,0,1,394.65.15,5.38,5.38,0,0,1,395.92,0h.2c2.57.15,4,2.66,4.89,5.84a4.44,4.44,0,0,1,2.81-2.25,3.19,3.19,0,0,1,1.06-.18h.25c5.38.46,7.09,15.72,7.85,27.29l0,.48c1.5,8.51.59,18.72.27,25.87-1.56,20.13-7.8,41.41-21.72,57-12.48,14.73-31,21.33-49.79,21.56h-.86a86.33,86.33,0,0,1-27.51-4.5c-7.45-2.73-15.7-4.37-21.4-10-10-10.1-.73-27.18,12.51-27.15h.4l.41,0c6.2.36,11.78,4.38,17.65,5.71a74.64,74.64,0,0,0,11.72,2.63,44.35,44.35,0,0,0,7.81.66h.81c24.43-.73,35.8-24.68,37.24-48.58a67.37,67.37,0,0,0,.1-12.78c-1-2.26-4.6-1.79-4.6-5.68.57-5-4.63-14.06,2.42-15.81-.5-2.65-1.06-5.28-1.7-7.91a4.38,4.38,0,0,1,3.33-5.09A4.48,4.48,0,0,1,383.86,7.85Z"/><path id="SKIN-DARKER" class="cls-6" d="M383.86,7.85v0l-.27-1a4.47,4.47,0,0,1,3.15-5.36A4.2,4.2,0,0,1,388,1.23h.12a4.38,4.38,0,0,1,3.6,2.07h0A3.91,3.91,0,0,1,394.65.15,5.38,5.38,0,0,1,395.92,0h.2c2.57.15,4,2.66,4.89,5.84a4.44,4.44,0,0,1,2.81-2.25,3.19,3.19,0,0,1,1.06-.18h.25c5.38.46,7.09,15.72,7.85,27.29l0,.48c1.5,8.51.59,18.72.27,25.87-1.56,20.13-7.8,41.41-21.72,57-12.48,14.73-31,21.33-49.79,21.56h-.86a86.33,86.33,0,0,1-27.51-4.5c-7.45-2.73-15.7-4.37-21.4-10-10-10.1-.73-27.18,12.51-27.15h.4l.41,0c6.2.36,11.78,4.38,17.65,5.71a74.64,74.64,0,0,0,11.72,2.63,44.35,44.35,0,0,0,7.81.66h.81c24.43-.73,35.8-24.68,37.24-48.58a67.37,67.37,0,0,0,.1-12.78c-1-2.26-4.6-1.79-4.6-5.68.57-5-4.63-14.06,2.42-15.81-.5-2.65-1.06-5.28-1.7-7.91a4.38,4.38,0,0,1,3.33-5.09A4.48,4.48,0,0,1,383.86,7.85Z"/><path id="Fill-15" class="cls-11" d="M326.21,97.4q-8.2,13.88-28.63,29.35c-8.88-1.12-27-18.52-24.89-29.35,1.54-8,0-12.66,14.17-12.66C298,84.74,318.06,95.31,326.21,97.4Z"/></g><path id="body-2" class="cls-1" d="M222.86,84.74h60.95a21,21,0,0,1,20.46,16.4h0c5.17,23.27,17.07,77.6,27.48,91.83,4.72,6.45,8.38,16.89.5,19.78-30.81,11.33-104.49,25.91-132.35,11.68-2.8-1.43-4.21-4.57-4.86-9.82-4-32.46,5.72-76,11.52-105.14C209.2,96.18,212.29,84.74,222.86,84.74Z"/><path id="SKIN-2" class="cls-8" d="M238.36,84.74c0,9.05,10.25,16.4,22.89,16.4s22.88-7.34,22.88-16.4"/><g id="Left-Arm"><path id="SKIN-3" class="cls-8" d="M209,214.75h0c-5.46.64-11.23-1-16.3-2-3.49-1.2-5.19-4.63-8.68-6.35-6.8-4.35-14.4-7.54-22.13-11.78-10.73-5.62-22.71-14.66-27.9-26.73-7.49-16.77-4.38-37.59,7.86-51.23,14.34-16,35.7-21.71,55.84-24.66,9.28-.8,21.08-4.28,28.37,2.85,6.64,5.74,6.15,17.3.16,23.19a15.94,15.94,0,0,1-10.7,5.15,146.44,146.44,0,0,0-26,3.7c-10.33,2.87-23.66,6.91-26.35,18.09-2.44,10.5,5.69,16.24,14.45,20.84,7.68,4.17,16.28,7.89,24.25,13,6.82,4.6,15.06,10.56,17.2,19.07,2.24,7.72-1.85,16.07-10.05,16.86"/><path id="SKIN-4" class="cls-8" d="M197.05,222.55c-6.05-.67-3.16-6.1-5.72-9.59-1.79-4.31-10.69-5.76-7.43-11.91,4.5-6.59,12.2,3.53,15,7.18,2.37,3.92,6.12,15-1.88,14.32"/><path id="SKIN-5" class="cls-8" d="M204,228.56c-6.53-1.68-1.54-10.78-3.92-15.38-.64-3,3.47-6.18,6.32-5,4.79,3.07,3.28,12.07,2.86,17a4.2,4.2,0,0,1-4.83,3.44l-.43-.1"/><path id="SKIN-6" class="cls-8" d="M211.45,231.51a4.8,4.8,0,0,1-3.36-5.48,34.18,34.18,0,0,0-.13-14.1c-1-3.49,2.61-7.9,6.23-5.67,4.88,2.44,5.77,28-2.74,25.24"/><path id="SKIN-7" class="cls-8" d="M224.88,210.24c-6.77-.28-6.87-10.65-11.08-14.6-3.9-5.29-9.41-8.44-9.9-15.43,2.86,1.72,5.89-1,8.82,1.41,5.43,3.63,21.68,23.72,12.16,28.63"/><path id="SKIN-8" class="cls-8" d="M220.21,228.83c-7.32-1.53.27-16-8.61-28.48-1.79-3.64-5.76-5.77-6.66-9.7-.79-3.65,3.18-6,6.3-4.12,3.38,2.14,5.61,5.64,8,9.1,4.36,5.12,12.07,33.44,1,33.21"/><path id="Fill-26" class="cls-1" d="M203.9,128.45A70.87,70.87,0,0,0,183,91.37c11.71-2.73,19.95-6.63,41.88-6.63,12.79,0,16,9.34,15,22-.9,11.4-9.58,21.1-20.93,21.68A134.93,134.93,0,0,1,203.9,128.45Z"/></g><g id="Head_Bob" data-name="Head Bob"><g id="Group-22"><path id="Fill-1-2" class="cls-1" d="M249.43,84.1h-2.05a13.89,13.89,0,0,1-13.89-13.89h0v-18h15.94Z"/><path id="Fill-3-2" class="cls-1" d="M269.87,84.1h16.62a1.82,1.82,0,0,0,1.82-1.81h0V52.21H269.87Z"/><path id="Fill-5" class="cls-1" d="M258.8,78.62h7.08V26.3H258.8a25.31,25.31,0,0,0-25.31,25.31h0v1.7A25.31,25.31,0,0,0,258.8,78.62h0"/><path id="Fill-8-2" class="cls-1" d="M266.48,55.2h-4.59V26.3h4.59c14,0,25.32,4.91,25.32,15.72v5.17c0,8-11.34,8-25.32,8"/><path id="SKIN-9" class="cls-8" d="M249.43,62.68h22.43V88.41c0,6.93-5,12.54-11.21,12.54s-11.22-5.62-11.22-12.54Z"/><path id="SKIN-10" class="cls-8" d="M272.88,78.62H270.4a21,21,0,0,1-21-21h0V47.83a16,16,0,0,1,16-16h2.79a16,16,0,0,1,16.05,16h0V67.19a11.44,11.44,0,0,1-11.44,11.43"/><path id="SHADOW" class="cls-1" d="M260.27,79.78c-4.63-1.63-6.94-5.77-7.85-11.34a21,21,0,0,0,17.72,10.18h1.72A13.87,13.87,0,0,1,260.27,79.78Z"/><path id="SKIN-11" class="cls-8" d="M255.42,60.93a6.23,6.23,0,1,1-6.23-6.23,6.23,6.23,0,0,1,6.23,6.23h0"/><path id="Stroke-17" class="cls-12" d="M248,58.28a3.83,3.83,0,0,1,1.72.42,3.21,3.21,0,0,1,1.79,2.93v.15H250A1.74,1.74,0,0,0,249,60a2.66,2.66,0,0,0-.74-.23,1.27,1.27,0,0,0-.28,0h0Z"/><path id="Fill-19" class="cls-1" d="M248.94,54.7h-.77c-2.92-2.84-4-8.62-4.37-14.23-.47-7.68,12.88-14.17,20.58-14.17h0a18,18,0,0,1,14.85,7.77l3.59,5.18H262.24c0,8.48-7.32,15.45-13.3,15.45"/></g></g><g id="Expression"><g id="Expression_Wink" data-name="Expression Wink"><g id="Group-17"><g id="Group_19" data-name="Group 19"><path id="Fill-1-3" class="cls-1" d="M278.91,54.45A1.51,1.51,0,1,0,277.4,56a1.51,1.51,0,0,0,1.51-1.5h0"/><path id="Stroke-5" class="cls-12" d="M266.54,64.28a4,4,0,0,0,3.9,3.62h.12v1.5a5.53,5.53,0,0,1-5.52-5v-.13Z"/><path id="Stroke-7" class="cls-12" d="M261.28,49.5a10.55,10.55,0,0,1,6-.11l.24.07-.44,1.44a9,9,0,0,0-5.37,0c-.27.08-.53.18-.78.28l-.12.05-.13.07L260,50A7.52,7.52,0,0,1,261.28,49.5Z"/><path id="Stroke-9" class="cls-12" d="M273.76,45.68a10.51,10.51,0,0,1,6.08.31,9.09,9.09,0,0,1,1.29.55l.14.09-.78,1.29-.08-.05-.2-.1a6.63,6.63,0,0,0-.87-.36,9.12,9.12,0,0,0-5-.32l-.23,0Z"/><path id="Stroke-15" class="cls-12" d="M261.14,55.67c1.25-3.12,6.67-3.16,7.44,0l0,.11-1.47.3c-.35-1.69-3.73-1.72-4.55,0l0,.1Z"/></g></g><path id="Stroke-5-2" class="cls-12" d="M272.14,53.11l1.48-.28,2.15,11.63h-5V63H274Z"/></g></g><path id="Fill-25" class="cls-2" d="M23.88,362.11h0A22.29,22.29,0,0,1,1.59,339.8V317.5H46.16v22.3a22.29,22.29,0,0,1-22.28,22.31"/><path id="Fill-91" class="cls-1" d="M0,453.74H3V342.26H0Z"/><path id="Fill-92" class="cls-1" d="M44.56,453.74h2.95V342.26H44.56Z"/><path id="Fill-93" class="cls-1" d="M22.28,453.74h2.95V342.26H22.28Z"/><path id="Fill-94" class="cls-4" d="M42.86,312.74a22.58,22.58,0,0,1-16.39-7.83c-6.95-8.07-5-22.11-5-22.11S36.18,287,40.45,295s2.41,17.77,2.41,17.77"/><path id="Fill-95" class="cls-3" d="M46.17,325.5s-9.4-.2-14.5,6.8-2.37,18.34-2.37,18.34,9.46-1.87,14.31-7.85c6.14-7.58,2.56-17.29,2.56-17.29"/><path id="Fill-96" class="cls-1" d="M56.47,338.94s8.77,5.1,9.32,13c.8,11.53-4.84,16.38-4.84,16.38s-8-2-9.53-10.33,5-19.08,5-19.08"/><path id="Fill-97" class="cls-3" d="M50.09,312.07c2.82-.42,5-2.35,6.22-1.93s4.41,6.35,3.86,11.74-7.8,12.43-7.8,12.43a16.51,16.51,0,0,1-9.1-9.46c-2.62-7.14.44-11.88,1.17-13s3.9.45,5.66.19"/><path id="Fill-98" class="cls-3" d="M54.3,332.26a43.15,43.15,0,0,1,12.9-8,25.92,25.92,0,0,1,15.19-1.55,39.94,39.94,0,0,1-11.8,8.61c-6.68,2.93-15.83,2.56-15.83,2.56Z"/><path id="Fill-99" class="cls-4" d="M49.32,333.39c2.5-.71,4.09-2.9,5-2.41s3.28,4.39,3.43,10.16-4.67,13.45-4.67,13.45-3.5-1.61-5.84-7.6-2.42-11.68-1.68-12.68,1.75-.33,3.8-.92"/><path id="Fill-100" class="cls-1" d="M44.63,311.37a22.59,22.59,0,0,1-1.47-6.58c0-2.77,4.43-8.73,5.25-9.33s4.08-.06,7.31-.83a29.64,29.64,0,0,1,7.89-1.1,9.26,9.26,0,0,1,3.7,1.52Z"/><path id="Fill-101" class="cls-3" d="M45.11,312.74s-1.24-2.8-.69-4.6,8-10.49,10.16-11.64,3.38-.27,6.6-1.2,5.95-1.09,7.48.82a11.27,11.27,0,0,0-6.06,3.06c-2.24,2.51-4.64,6.12-7.42,8.74s-8.63,5.13-8.63,5.13Z"/><path id="Fill-102" class="cls-4" d="M48.65,357.05s3.47,4,2.77,11.3-7.14,11.07-7.14,11.07a12.58,12.58,0,0,1-3.83-11.73c1.26-7.71,8.2-10.64,8.2-10.64"/><path id="Fill-103" class="cls-3" d="M56.74,366.3s6.61,4.57,7.87,11.94-3.94,16-3.94,16A15.55,15.55,0,0,1,53,383.06c-1.76-11,3.79-16.76,3.79-16.76"/><path id="Fill-104" class="cls-3" d="M44.43,311.88s-7.89-2.69-14.23-.51-9.58,10.83-9.58,10.83,10,2.37,15.58-.64,8.23-9.68,8.23-9.68"/><path id="Fill-105" class="cls-3" d="M56.53,413.06c2.29-.81,8,2.37,7.1,11.19a17.3,17.3,0,0,1-7.77,12.8,15.58,15.58,0,0,0-1.14-5.88c-1.13-2.18-3.08-6.35-3.53-9.86s.22-6.45,5.33-8.25"/><path id="Fill-106" class="cls-3" d="M51.51,403.39c1.71,1.61,2.07,8.76-1.84,12.9-4.06,4.29-13.14,4.36-13.14,4.36s-.1-8.12,3.22-12.58,9.92-6.42,11.76-4.68"/></svg>