<svg id="Layer_1" data-name="Layer 1" xmlns="http://www.w3.org/2000/svg" viewBox="0 0 255.55 384.87"><defs><style>.cls-1{fill:#451e56;}.cls-1,.cls-2,.cls-3,.cls-4{fill-rule:evenodd;}.cls-2{fill:#a65591;}.cls-3{fill:#b373a2;}.cls-4{fill:#c291b5;}</style></defs><path id="Fill-70-2" class="cls-1" d="M118.29,226.43s4.65-15.71.79-22.51-8.35-9.75-17.91-14.26-8.5-10.56-18.85-15.8S54.17,175,41.16,175.92s-13.54-4.58-21.78-4.3S0,181,0,181s13.28-3.15,26.55,1.34,9.68,13.64,20.3,22.49l6.83,2.77Z"/><path id="Fill-76-2" class="cls-1" d="M134.32,315.25c-3-57.36-31.39-101.66-86.76-135.42l-1,1c55.07,33.58,83.3,77.63,86.3,134.66"/><path id="Fill-77-2" class="cls-2" d="M110.46,209.1c12.68,11.06,8.4,35.72,6.7,43.37-12.88-21.37-35.33-36-63.86-45.55a20.65,20.65,0,0,1-2.59-1"/><path id="Fill-71-2" class="cls-3" d="M135.52,229.57s-8.66-26.91-10.15-40.26-3.32-63.93,8.22-91.11S156.45,62.69,161.89,56s5.75-14,14.41-21.25,23.7-7.42,29.22-12.38C211.8,16.68,236.38,2.42,249,0c0,0-12.63,17.76-16.89,36.86s2.5,28.79-1.23,38.47S219,93.9,213.72,105.2s-9.23,41.16-13.58,48.43c-31.82,21.53-53.5,52.87-65.89,93.61Z"/><path id="Fill-73-2" class="cls-1" d="M136,315.2a553.55,553.55,0,0,1-.18-77.38A405.7,405.7,0,0,1,148.2,161.9a326,326,0,0,1,28-71.13c.69-1.45,1.54-2.79,2.34-4.17L181,82.48l4.85-8.23c3.43-5.36,7-10.61,10.55-15.92L207.92,43.1,220.3,28.56c-4.23,4.75-8.52,9.47-12.72,14.26L195.83,57.91c-3.6,5.28-7.28,10.49-10.8,15.82L180.13,82l-2.45,4.12c-.81,1.38-1.67,2.73-2.37,4.17a327.52,327.52,0,0,0-28.48,71.25A406.51,406.51,0,0,0,134,237.64a546.7,546.7,0,0,0,0,77.64Z"/><path id="Fill-72-2" class="cls-1" d="M135.24,318.15c.09-.5,8.95-50.08,39.82-52.31,16.22-1.21,20.69,24.33,20.74,24.59l1.93-.32a52.79,52.79,0,0,0-4.5-13.46c-4.48-8.9-10.82-13.3-18.32-12.77-13.45,1-24.93,10.66-33.17,28a112.76,112.76,0,0,0-8.43,25.94Z"/><path id="Fill-74-2" class="cls-4" d="M254.52,338.57s.48-10.11-5.35-16.3-16.3-5.71-20.1-8.8-5.47-8.09-9.52-10.11-9,2-17.6-2.26-10.12-33.43-12-37.35-16.54-15.94-16.54-15.94A24.35,24.35,0,0,0,183.86,250c5.82-.15,19.27-10,22.84-9.43s13.8,8.8,15.58,11.54,3.33,10.11,11.3,17.37,12.62,11.42,14.28,15.82,5.36,9.4,5,12.85-.5,15,.18,17.46,4.24,16.8,1.48,23"/><path id="Fill-75-2" class="cls-2" d="M195.41,290.27s-.42-1.66-1.24-4.61c-2-7.36-7.19-20.51-19.52-19.61-13.24.95-22.15,9-28.44,19.54,0,0,4.29-8.6,3.6-13.24s-5.75-10-4.9-14.85,8-5.06,12.71-7.47,6.95-6.18,12.19-6.18,16.57,14.77,20,17.94,5.6,28.48,5.6,28.48"/><path id="Fill-60-2" class="cls-1" d="M154.07,384.87h-35.4a12.93,12.93,0,0,1-12.87-11.76l-5.45-60.29H172.4L167,373.11a12.93,12.93,0,0,1-12.87,11.76"/></svg>