<svg id="Layer_1" data-name="Layer 1" xmlns="http://www.w3.org/2000/svg" viewBox="0 0 1129.43 432.2"><defs><style>.cls-1{fill:#cdf9f6;}.cls-10,.cls-2{fill:#ede1e9;}.cls-14,.cls-15,.cls-16,.cls-18,.cls-2,.cls-23,.cls-3,.cls-6,.cls-8,.cls-9{fill-rule:evenodd;}.cls-11,.cls-3{fill:#dbc4d4;}.cls-4{fill:#e7d7e2;}.cls-5,.cls-9{fill:#c39cb7;}.cls-6{fill:#89d1cd;}.cls-15,.cls-7{fill:#13a49c;}.cls-12,.cls-8{fill:#8f779a;}.cls-13,.cls-16{fill:#6a4a78;}.cls-14,.cls-19{fill:#5abfba;}.cls-17{fill:#ffc30d;}.cls-18,.cls-21{fill:#f37379;}.cls-20{fill:#f7a7ab;}.cls-22,.cls-23{fill:#451d56;}</style></defs><circle id="Sun" class="cls-1" cx="171.31" cy="59.8" r="52.6"/><path id="Cloud" class="cls-2" d="M185.9,163.2A39.89,39.89,0,0,0,154.85,178a23.58,23.58,0,0,0-14-4.55,23.85,23.85,0,0,0-22.57,16.28,23.54,23.54,0,0,0-7-1,23.93,23.93,0,0,0-23.84,24c0,.42,0,.84,0,1.26H255.11a20.87,20.87,0,0,0-20.78-19.93,20.62,20.62,0,0,0-9,2.06A40.18,40.18,0,0,0,185.9,163.2Z"/><path id="Cloud-2" data-name="Cloud" class="cls-3" d="M242.35,172a28.11,28.11,0,0,1,28.11,28.09A28.08,28.08,0,0,1,294.71,214H191.11a28.14,28.14,0,0,1,24.07-21.12A28.12,28.12,0,0,1,242.35,172Z"/><path id="Cloud-3" data-name="Cloud" class="cls-2" d="M958.51,103.2c12.11,0,22.24,7.73,24.84,18.09a27.38,27.38,0,0,1,11.15-2.35c10.06,0,18.75,5.33,22.9,13.08a16.26,16.26,0,0,1,4.17-.54c7.38,0,13.51,4.88,14.74,11.31H880.71c1.24-6.43,7.37-11.31,14.75-11.31a16.2,16.2,0,0,1,6.38,1.3c3.82-8.46,12.92-14.42,23.55-14.42a27.49,27.49,0,0,1,8.73,1.4C937.29,110.18,947,103.2,958.51,103.2Z"/><path id="Cloud-4" data-name="Cloud" class="cls-2" d="M779.1,93.2A39.89,39.89,0,0,0,748.05,108a23.58,23.58,0,0,0-14-4.55,23.85,23.85,0,0,0-22.57,16.28,23.54,23.54,0,0,0-7-1,23.93,23.93,0,0,0-23.84,24c0,.42,0,.84,0,1.26H848.31a20.87,20.87,0,0,0-20.78-19.93,20.62,20.62,0,0,0-9,2.06A40.18,40.18,0,0,0,779.1,93.2Z"/><path id="Cloud-5" data-name="Cloud" class="cls-3" d="M899.15,81.2a49.39,49.39,0,0,0-38.4,18.31A29.41,29.41,0,0,0,815.58,114a29.48,29.48,0,0,0-38.07,28.36c0,.55,0,1.09,0,1.63H984.71A25.78,25.78,0,0,0,959,119.3a25.52,25.52,0,0,0-11.14,2.55A49.67,49.67,0,0,0,899.15,81.2Z"/><rect class="cls-4" x="-3.37" y="368" width="1136.17" height="65.2"/><rect id="sidewalk" class="cls-5" x="-3.37" y="368" width="1136.17" height="3.2"/><path id="Oval" class="cls-6" d="M131.51,358.4c8,0,14.4-3.07,14.4-13.67S139.47,320,131.51,320s-14.4,14.13-14.4,24.73S123.56,358.4,131.51,358.4Z"/><rect id="Rectangle" class="cls-7" x="131.11" y="336" width="1.6" height="32"/><polygon id="Rectangle-Copy" class="cls-8" points="188.66 306.8 233.26 306.8 248.78 326.94 173.15 326.94 188.66 306.8"/><polygon id="Rectangle-2" data-name="Rectangle" class="cls-9" points="154.53 306.8 199.13 306.8 214.65 326.94 139.02 326.94 154.53 306.8"/><rect id="Rectangle-3" data-name="Rectangle" class="cls-10" x="139.02" y="326.95" width="75.63" height="41.85"/><rect id="Rectangle-4" data-name="Rectangle" class="cls-11" x="214.65" y="326.95" width="34.13" height="41.85"/><path id="Rectangle-5" data-name="Rectangle" class="cls-8" d="M176.83,340.9a7.55,7.55,0,0,1,7.56,7.55V368.8H169.27V348.45A7.55,7.55,0,0,1,176.83,340.9Z"/><path id="Rectangle-Copy-4" class="cls-3" d="M178.38,308.35A7.56,7.56,0,0,1,186,315.9v1.85h0l-4.27,5.71-6.45-9a3.87,3.87,0,0,1,3.15-6.13Z"/><rect id="Rectangle-6" data-name="Rectangle" class="cls-11" x="174.31" y="308.35" width="4.27" height="6.2"/><path id="Rectangle-Copy-2" class="cls-2" d="M174.12,308.35a7.56,7.56,0,0,1,7.56,7.55v7.56H166.55V315.9A7.56,7.56,0,0,1,174.12,308.35Z"/><path id="Rectangle-Copy-3" class="cls-8" d="M174.12,310.67a5.23,5.23,0,0,1,5.23,5.23v7.56H168.88V315.9A5.23,5.23,0,0,1,174.12,310.67Z"/><rect id="Rectangle-7" data-name="Rectangle" class="cls-12" x="145.22" y="334.7" width="17.84" height="20.15"/><rect id="Rectangle-8" data-name="Rectangle" class="cls-12" x="190.6" y="334.7" width="17.84" height="20.15"/><rect id="Rectangle-9" data-name="Rectangle" class="cls-11" x="144.06" y="354.85" width="20.17" height="1.55"/><rect id="Rectangle-Copy-5" class="cls-11" x="189.44" y="354.85" width="20.17" height="1.55"/><rect id="Rectangle-Copy-6" class="cls-5" x="221.63" y="354.85" width="20.17" height="1.55"/><rect id="Rectangle-10" data-name="Rectangle" class="cls-13" x="222.79" y="334.7" width="17.84" height="20.15"/><path id="Rectangle-Copy-80" class="cls-9" d="M218.52,304.08H229v18.6h-3.88Z"/><polygon id="Rectangle-11" data-name="Rectangle" class="cls-3" points="214.65 304.08 225.12 304.08 225.12 322.68 214.65 309.12 214.65 304.08"/><path id="Oval-2" data-name="Oval" class="cls-6" d="M252.31,358.4c8,0,14.4-3.07,14.4-13.67S260.27,320,252.31,320s-14.4,14.13-14.4,24.73S244.36,358.4,252.31,358.4Z"/><rect id="Rectangle-12" data-name="Rectangle" class="cls-7" x="251.91" y="336" width="1.6" height="32"/><path id="Oval-3" data-name="Oval" class="cls-14" d="M115.91,358.4c10.61,0,19.2-3.58,19.2-15.95s-8.59-28.85-19.2-28.85-19.2,16.48-19.2,28.85S105.31,358.4,115.91,358.4Z"/><rect id="Rectangle-13" data-name="Rectangle" class="cls-7" x="115.51" y="329.6" width="1.6" height="38.4"/><circle id="Oval-4" data-name="Oval" class="cls-7" cx="238.11" cy="361.4" r="5.4"/><path id="Combined-Shape" class="cls-14" d="M230.71,354.2a8,8,0,0,1,8,8,7.14,7.14,0,0,1,0,.8h0a4.81,4.81,0,0,1,4.65,6h-24.8a6.4,6.4,0,0,1,4.48-9.08A8,8,0,0,1,230.71,354.2Z"/><path id="Oval-5" data-name="Oval" class="cls-14" d="M249.31,369c5.42,0,9.8-.22,9.8-6.52s-4.38-16.28-9.8-16.28-9.8,10-9.8,16.28S243.9,369,249.31,369Z"/><circle id="Oval-6" data-name="Oval" class="cls-7" cx="133.31" cy="361.8" r="4.2"/><path id="Path" class="cls-15" d="M136.31,368a5.4,5.4,0,0,0-10.8,0"/><path id="Combined-Shape-2" data-name="Combined-Shape" class="cls-14" d="M141.18,359a7.07,7.07,0,0,1,3.44.88,5.65,5.65,0,0,1,2.36-.51,5.82,5.82,0,0,1,5.42,3.76,4.68,4.68,0,0,1,.76-.06,4.46,4.46,0,0,1,4.1,5.93H134.38a7.49,7.49,0,0,1-.47-2.6A7.34,7.34,0,0,1,141.18,359Z"/><rect id="Rectangle-14" data-name="Rectangle" class="cls-11" x="262.71" y="255.2" width="275.2" height="113.6"/><rect id="Rectangle-15" data-name="Rectangle" class="cls-12" x="537.91" y="256.8" width="41.6" height="112"/><path id="Rectangle-16" data-name="Rectangle" class="cls-16" d="M549.11,264.8a6.39,6.39,0,0,1,6.4,6.4V284h-12.8V271.2A6.4,6.4,0,0,1,549.11,264.8Z"/><path id="Rectangle-17" data-name="Rectangle" class="cls-16" d="M549.11,299.2a6.39,6.39,0,0,1,6.4,6.4v12.8h-12.8V305.6A6.4,6.4,0,0,1,549.11,299.2Z"/><path id="Rectangle-18" data-name="Rectangle" class="cls-16" d="M568.31,264.8a6.39,6.39,0,0,1,6.4,6.4V284h-12.8V271.2A6.4,6.4,0,0,1,568.31,264.8Z"/><path id="Rectangle-19" data-name="Rectangle" class="cls-16" d="M568.31,299.2a6.39,6.39,0,0,1,6.4,6.4v12.8h-12.8V305.6A6.4,6.4,0,0,1,568.31,299.2Z"/><rect id="Rectangle-20" data-name="Rectangle" class="cls-12" x="537.91" y="255.2" width="44.8" height="3.2"/><path id="Rectangle-21" data-name="Rectangle" class="cls-8" d="M277.11,264.8a6.39,6.39,0,0,1,6.4,6.4V284h-12.8V271.2A6.4,6.4,0,0,1,277.11,264.8Z"/><path id="Rectangle-22" data-name="Rectangle" class="cls-8" d="M277.11,299.2a6.39,6.39,0,0,1,6.4,6.4v12.8h-12.8V305.6A6.4,6.4,0,0,1,277.11,299.2Z"/><path id="Rectangle-23" data-name="Rectangle" class="cls-8" d="M343.51,264.8a6.39,6.39,0,0,1,6.4,6.4V284h-12.8V271.2A6.4,6.4,0,0,1,343.51,264.8Z"/><path id="Rectangle-24" data-name="Rectangle" class="cls-8" d="M343.51,299.2a6.39,6.39,0,0,1,6.4,6.4v12.8h-12.8V305.6A6.4,6.4,0,0,1,343.51,299.2Z"/><rect id="Rectangle-25" data-name="Rectangle" class="cls-17" x="547.91" y="330.4" width="21.6" height="25.6"/><path id="Rectangle-26" data-name="Rectangle" class="cls-8" d="M456.31,264.8a6.39,6.39,0,0,1,6.4,6.4V284h-12.8V271.2A6.4,6.4,0,0,1,456.31,264.8Z"/><path id="Rectangle-27" data-name="Rectangle" class="cls-8" d="M456.31,299.2a6.39,6.39,0,0,1,6.4,6.4v12.8h-12.8V305.6A6.4,6.4,0,0,1,456.31,299.2Z"/><path id="Rectangle-28" data-name="Rectangle" class="cls-8" d="M521.91,264.8a6.39,6.39,0,0,1,6.4,6.4V284h-12.8V271.2A6.4,6.4,0,0,1,521.91,264.8Z"/><path id="Rectangle-29" data-name="Rectangle" class="cls-8" d="M521.91,299.2a6.39,6.39,0,0,1,6.4,6.4v12.8h-12.8V305.6A6.4,6.4,0,0,1,521.91,299.2Z"/><path id="Rectangle-Copy-8" class="cls-18" d="M277.11,337.6a6.39,6.39,0,0,1,6.4,6.4v12.8h-12.8V344A6.4,6.4,0,0,1,277.11,337.6Z"/><path id="Rectangle-Copy-7" class="cls-8" d="M307.91,337.6a10.39,10.39,0,0,1,10.4,10.4v20.8h-20.8V348A10.4,10.4,0,0,1,307.91,337.6Z"/><path id="Rectangle-Copy-5-2" data-name="Rectangle-Copy-5" class="cls-8" d="M343.51,337.6a6.39,6.39,0,0,1,6.4,6.4v12.8h-12.8V344A6.4,6.4,0,0,1,343.51,337.6Z"/><path id="Rectangle-Copy-4-2" data-name="Rectangle-Copy-4" class="cls-18" d="M456.31,337.6a6.39,6.39,0,0,1,6.4,6.4v12.8h-12.8V344A6.4,6.4,0,0,1,456.31,337.6Z"/><path id="Rectangle-Copy-3-2" data-name="Rectangle-Copy-3" class="cls-8" d="M484.31,337.6a10.39,10.39,0,0,1,10.4,10.4v20.8h-20.8V348A10.4,10.4,0,0,1,484.31,337.6Z"/><path id="Rectangle-Copy-2-2" data-name="Rectangle-Copy" class="cls-8" d="M521.91,337.6a6.39,6.39,0,0,1,6.4,6.4v12.8h-12.8V344A6.4,6.4,0,0,1,521.91,337.6Z"/><rect id="Rectangle-30" data-name="Rectangle" class="cls-12" x="291.51" y="249.2" width="40" height="6"/><rect id="Rectangle-Copy-10" class="cls-12" x="470.71" y="249.2" width="40" height="6"/><rect id="Rectangle-31" data-name="Rectangle" class="cls-10" x="361.11" y="258" width="74.4" height="111.2"/><rect id="Rectangle-Copy-2-3" data-name="Rectangle-Copy-2" class="cls-5" x="262.71" y="284" width="278.4" height="3.2"/><rect id="Rectangle-Copy-16" class="cls-12" x="294.71" y="246" width="42.8" height="3.2"/><rect id="Rectangle-Copy-17" class="cls-12" x="472.71" y="246" width="42.8" height="3.2"/><rect id="Rectangle-Copy-14" class="cls-5" x="285.91" y="246" width="42.8" height="3.2"/><rect id="Rectangle-Copy-15" class="cls-5" x="465.11" y="246" width="42.8" height="3.2"/><rect id="Rectangle-Copy-6-2" data-name="Rectangle-Copy-6" class="cls-5" x="262.71" y="318.4" width="278.4" height="3.2"/><rect id="Rectangle-32" data-name="Rectangle" class="cls-5" x="360.31" y="255.2" width="76.8" height="2.8"/><rect id="Rectangle-33" data-name="Rectangle" class="cls-5" x="430.71" y="258" width="9.6" height="110.8"/><rect id="Rectangle-34" data-name="Rectangle" class="cls-12" x="437.11" y="255.2" width="3.2" height="113.6"/><rect id="Rectangle-35" data-name="Rectangle" class="cls-12" x="433.91" y="315.2" width="6.4" height="9.6"/><path id="Rectangle-36" data-name="Rectangle" class="cls-8" d="M400.31,330.4a14.39,14.39,0,0,1,14.4,14.4v24h-28.8v-24A14.4,14.4,0,0,1,400.31,330.4Z"/><rect id="Rectangle-37" data-name="Rectangle" class="cls-5" x="360.31" y="258" width="9.6" height="110.8"/><rect id="Rectangle-38" data-name="Rectangle" class="cls-12" x="366.71" y="258" width="3.2" height="110.8"/><rect id="Rectangle-39" data-name="Rectangle" class="cls-11" x="357.11" y="315.2" width="76.8" height="9.6"/><path id="Rectangle-40" data-name="Rectangle" class="cls-9" d="M400.11,190h0a1.79,1.79,0,0,1,1.8,1.8v60a1.8,1.8,0,0,1-1.8,1.8h0a1.81,1.81,0,0,1-1.8-1.8v-60A1.8,1.8,0,0,1,400.11,190Z"/><rect id="Rectangle-41" data-name="Rectangle" class="cls-5" x="295.51" y="249.2" width="31.2" height="120"/><rect id="Rectangle-Copy-11" class="cls-5" x="474.71" y="249.2" width="31.2" height="120"/><rect id="Rectangle-Copy-9" class="cls-12" x="294.71" y="249.2" width="32" height="120"/><rect id="Rectangle-Copy-12" class="cls-12" x="473.91" y="249.2" width="32" height="120"/><rect id="Rectangle-Copy-3-3" data-name="Rectangle-Copy" class="cls-5" x="262.71" y="255.2" width="278.4" height="3.2"/><rect id="Rectangle-42" data-name="Rectangle" class="cls-10" x="291.51" y="249.2" width="32" height="120"/><rect id="Rectangle-Copy-13" class="cls-10" x="470.71" y="249.2" width="32" height="120"/><path id="Rectangle-Copy-24" class="cls-8" d="M307.91,337.6a6.39,6.39,0,0,1,6.4,6.4v25.6h-12.8V344A6.4,6.4,0,0,1,307.91,337.6Z"/><path id="Rectangle-43" data-name="Rectangle" class="cls-8" d="M320,221.6c6.38,0,11.54,7.28,11.54,16.26V246H308.43v-8.14c0-3.07-3.36-13.81-2.31-16.26Z"/><path id="Rectangle-44" data-name="Rectangle" class="cls-9" d="M307.51,221.6a16,16,0,0,1,16,16V246h-32v-8.4A16,16,0,0,1,307.51,221.6Z"/><path id="Rectangle-Copy-18" class="cls-8" d="M405.71,206a38.6,38.6,0,0,1,38.6,38.6v10.6h-77.2V244.6A38.6,38.6,0,0,1,405.71,206Z"/><path id="Rectangle-Copy-25" class="cls-8" d="M486.31,337.6a6.39,6.39,0,0,1,6.4,6.4v25.6h-12.8V344A6.4,6.4,0,0,1,486.31,337.6Z"/><path id="Rectangle-45" data-name="Rectangle" class="cls-9" d="M398.51,206a38.6,38.6,0,0,1,38.6,38.6v10.6h-77.2V244.6A38.6,38.6,0,0,1,398.51,206Z"/><path id="Rectangle-46" data-name="Rectangle" class="cls-8" d="M499.17,221.6c6.38,0,11.54,7.28,11.54,16.26V246H487.63v-8.14c0-3.07-3.36-13.81-2.31-16.26Z"/><rect id="Rectangle-Copy-27" class="cls-12" x="433.91" y="245.6" width="12.8" height="9.6"/><path id="Rectangle-47" data-name="Rectangle" class="cls-9" d="M486.71,221.6a16,16,0,0,1,16,16V246h-32v-8.4A16,16,0,0,1,486.71,221.6Z"/><rect id="Rectangle-Copy-26" class="cls-11" x="357.11" y="245.6" width="76.8" height="9.6"/><path id="Rectangle-Copy-22" class="cls-18" d="M486.31,264.8a6.39,6.39,0,0,1,6.4,6.4V284h-12.8V271.2A6.4,6.4,0,0,1,486.31,264.8Z"/><path id="Rectangle-Copy-19" class="cls-8" d="M307.91,264.8a6.39,6.39,0,0,1,6.4,6.4V284h-12.8V271.2A6.4,6.4,0,0,1,307.91,264.8Z"/><path id="Rectangle-Copy-21" class="cls-8" d="M486.31,299.2a6.39,6.39,0,0,1,6.4,6.4v12.8h-12.8V305.6A6.4,6.4,0,0,1,486.31,299.2Z"/><path id="Rectangle-Copy-20" class="cls-18" d="M307.91,299.2a6.39,6.39,0,0,1,6.4,6.4v12.8h-12.8V305.6A6.4,6.4,0,0,1,307.91,299.2Z"/><path id="Rectangle-Copy-23" class="cls-8" d="M386.31,292.4h28.4v22.8h-28.8V292.8A.39.39,0,0,1,386.31,292.4Z"/><circle id="Oval-7" data-name="Oval" class="cls-12" cx="400.31" cy="272" r="6.8"/><path id="Combined-Shape-Copy" class="cls-9" d="M688.31,236a38.41,38.41,0,0,1,37.63,30.67l.19.56a20,20,0,0,0,18.93,13.57h81.25v88H551.11v-88h80.45a20,20,0,0,0,19-13.6l.19-.58A38.41,38.41,0,0,1,688.31,236Z"/><rect id="Rectangle-Copy-2-4" data-name="Rectangle-Copy-2" class="cls-12" x="825.51" y="280.8" width="41.6" height="3.2"/><path id="Combined-Shape-3" data-name="Combined-Shape" class="cls-2" d="M684.31,235.6A38.41,38.41,0,0,1,722,266.79l.09.27a20,20,0,0,0,18.94,13.58h81.24V368.8H547.11V280.64h80.44a20,20,0,0,0,19-13.61l.1-.28A38.4,38.4,0,0,1,684.31,235.6Z"/><rect id="Rectangle-48" data-name="Rectangle" class="cls-12" x="822.31" y="280.8" width="41.6" height="88"/><path id="Rectangle-49" data-name="Rectangle" class="cls-16" d="M833.51,295.2a6.39,6.39,0,0,1,6.4,6.4v12.8h-12.8V301.6A6.4,6.4,0,0,1,833.51,295.2Z"/><path id="Rectangle-50" data-name="Rectangle" class="cls-16" d="M852.71,295.2a6.39,6.39,0,0,1,6.4,6.4v12.8h-12.8V301.6A6.4,6.4,0,0,1,852.71,295.2Z"/><rect id="Rectangle-51" data-name="Rectangle" class="cls-12" x="825.51" y="280.8" width="41.6" height="0.8"/><rect id="Rectangle-52" data-name="Rectangle" class="cls-12" x="825.51" y="314.4" width="41.6" height="3.2"/><path id="Rectangle-53" data-name="Rectangle" class="cls-8" d="M563.11,295.2a6.39,6.39,0,0,1,6.4,6.4v12.8h-12.8V301.6A6.4,6.4,0,0,1,563.11,295.2Z"/><path id="Rectangle-54" data-name="Rectangle" class="cls-18" d="M601.51,295.2a6.39,6.39,0,0,1,6.4,6.4v12.8h-12.8V301.6A6.4,6.4,0,0,1,601.51,295.2Z"/><path id="Rectangle-55" data-name="Rectangle" class="cls-8" d="M582.31,295.2a6.39,6.39,0,0,1,6.4,6.4v12.8h-12.8V301.6A6.4,6.4,0,0,1,582.31,295.2Z"/><path id="Rectangle-56" data-name="Rectangle" class="cls-8" d="M620.71,295.2a6.39,6.39,0,0,1,6.4,6.4v12.8h-12.8V301.6A6.4,6.4,0,0,1,620.71,295.2Z"/><path id="Rectangle-57" data-name="Rectangle" class="cls-8" d="M843.11,330a10.79,10.79,0,0,1,10.8,10.8v28h-21.6v-28A10.8,10.8,0,0,1,843.11,330Z"/><path id="Rectangle-58" data-name="Rectangle" class="cls-8" d="M740.71,295.2a6.39,6.39,0,0,1,6.4,6.4v12.8h-12.8V301.6A6.4,6.4,0,0,1,740.71,295.2Z"/><path id="Rectangle-59" data-name="Rectangle" class="cls-8" d="M779.11,295.2a6.39,6.39,0,0,1,6.4,6.4v12.8h-12.8V301.6A6.4,6.4,0,0,1,779.11,295.2Z"/><path id="Rectangle-60" data-name="Rectangle" class="cls-8" d="M759.91,295.2a6.39,6.39,0,0,1,6.4,6.4v12.8h-12.8V301.6A6.4,6.4,0,0,1,759.91,295.2Z"/><path id="Rectangle-61" data-name="Rectangle" class="cls-8" d="M798.31,295.2a6.39,6.39,0,0,1,6.4,6.4v12.8h-12.8V301.6A6.4,6.4,0,0,1,798.31,295.2Z"/><path id="Rectangle-62" data-name="Rectangle" class="cls-8" d="M684.71,258.4a14.39,14.39,0,0,1,14.4,14.4V332h-28.8V272.8A14.4,14.4,0,0,1,684.71,258.4Z"/><path id="Rectangle-63" data-name="Rectangle" class="cls-8" d="M655.51,280.8a10.79,10.79,0,0,1,10.8,10.8V332h-21.6V291.6A10.8,10.8,0,0,1,655.51,280.8Z"/><path id="Rectangle-64" data-name="Rectangle" class="cls-8" d="M713.91,280.8a10.79,10.79,0,0,1,10.8,10.8V332h-21.6V291.6A10.8,10.8,0,0,1,713.91,280.8Z"/><rect id="Rectangle-65" data-name="Rectangle" class="cls-12" x="635.51" y="314.4" width="5.2" height="17.6"/><rect id="Rectangle-66" data-name="Rectangle" class="cls-5" x="720.31" y="314.32" width="102" height="3.34"/><rect id="Rectangle-67" data-name="Rectangle" class="cls-10" x="720.31" y="317.6" width="6" height="14.4"/><rect id="Rectangle-68" data-name="Rectangle" class="cls-5" x="547.11" y="314.32" width="88.4" height="3.34"/><rect id="Rectangle-69" data-name="Rectangle" class="cls-5" x="672.71" y="332" width="47.6" height="36.8"/><rect id="Rectangle-Copy-53" class="cls-11" x="605.11" y="364" width="81.6" height="4.8"/><rect id="Rectangle-Copy-54" class="cls-11" x="627.51" y="341.2" width="81.6" height="4.4"/><rect id="Rectangle-Copy-55" class="cls-11" x="613.91" y="354.8" width="81.6" height="4.8"/><rect id="Rectangle-Copy-56" class="cls-11" x="635.51" y="332" width="81.6" height="4.8"/><rect id="Rectangle-Copy-57" class="cls-11" x="609.51" y="359.6" width="81.6" height="4.4"/><rect id="Rectangle-Copy-58" class="cls-11" x="631.51" y="336.8" width="81.6" height="4.4"/><rect id="Rectangle-Copy-59" class="cls-11" x="619.11" y="350.4" width="81.6" height="4.8"/><rect id="Rectangle-Copy-61" class="cls-11" x="623.51" y="345.6" width="81.6" height="4.8"/><path id="Rectangle-70" data-name="Rectangle" class="cls-2" d="M564.71,268.8a8,8,0,0,1,8,8v4h-16v-4A8,8,0,0,1,564.71,268.8Z"/><circle id="Oval-8" data-name="Oval" class="cls-5" cx="564.71" cy="275.2" r="3.2"/><path id="Rectangle-71" data-name="Rectangle" class="cls-2" d="M750.71,268.8a8,8,0,0,1,8,8v4h-16v-4A8,8,0,0,1,750.71,268.8Z"/><circle id="Oval-9" data-name="Oval" class="cls-5" cx="750.71" cy="275.2" r="3.2"/><path id="Rectangle-72" data-name="Rectangle" class="cls-2" d="M591.91,268.8a8,8,0,0,1,8,8v4h-16v-4A8,8,0,0,1,591.91,268.8Z"/><circle id="Oval-10" data-name="Oval" class="cls-5" cx="591.91" cy="275.2" r="3.2"/><path id="Rectangle-73" data-name="Rectangle" class="cls-2" d="M777.91,268.8a8,8,0,0,1,8,8v4h-16v-4A8,8,0,0,1,777.91,268.8Z"/><circle id="Oval-11" data-name="Oval" class="cls-5" cx="777.91" cy="275.2" r="3.2"/><path id="Rectangle-74" data-name="Rectangle" class="cls-9" d="M830.31,268.8a8,8,0,0,1,8,8v4h-16v-4A8,8,0,0,1,830.31,268.8Z"/><path id="Rectangle-75" data-name="Rectangle" class="cls-2" d="M619.11,268.8a8,8,0,0,1,8,8v4h-16v-4A8,8,0,0,1,619.11,268.8Z"/><circle id="Oval-12" data-name="Oval" class="cls-5" cx="619.11" cy="275.2" r="3.2"/><path id="Rectangle-76" data-name="Rectangle" class="cls-2" d="M805.11,268.8a8,8,0,0,1,8,8v4h-16v-4A8,8,0,0,1,805.11,268.8Z"/><circle id="Oval-13" data-name="Oval" class="cls-5" cx="805.11" cy="275.2" r="3.2"/><path id="Rectangle-77" data-name="Rectangle" class="cls-9" d="M854.71,268.8a8,8,0,0,1,8,8v4h-16v-4A8,8,0,0,1,854.71,268.8Z"/><circle id="Oval-Copy-2" class="cls-5" cx="685.51" cy="248.4" r="6.8"/><circle id="Oval-Copy" class="cls-11" cx="683.91" cy="248.4" r="6.8"/><circle id="Oval-14" data-name="Oval" class="cls-12" cx="683.91" cy="248.4" r="3.2"/><circle id="Oval-Copy-3" class="cls-5" cx="564.71" cy="341.6" r="3.2"/><circle id="Oval-Copy-6" class="cls-5" cx="750.71" cy="341.6" r="3.2"/><circle id="Oval-Copy-5" class="cls-5" cx="619.11" cy="341.6" r="3.2"/><circle id="Oval-Copy-8" class="cls-5" cx="805.11" cy="341.6" r="3.2"/><rect id="Rectangle-78" data-name="Rectangle" class="cls-19" x="849.91" y="301.2" width="19.6" height="57.2" rx="9.6"/><rect id="Rectangle-79" data-name="Rectangle" class="cls-7" x="859.11" y="329.6" width="1.6" height="38.4"/><rect id="Rectangle-80" data-name="Rectangle" class="cls-10" x="869.82" y="326.95" width="75.63" height="41.85"/><rect id="Rectangle-81" data-name="Rectangle" class="cls-11" x="945.45" y="326.95" width="34.13" height="41.85"/><polygon id="Rectangle-Copy-4-3" data-name="Rectangle-Copy" class="cls-16" points="945.45 354.85 979.58 354.85 982.29 368.8 945.45 368.8 945.45 354.85"/><polygon id="Rectangle-82" data-name="Rectangle" class="cls-8" points="869.82 354.85 945.45 354.85 947.38 368.8 867.88 368.8 869.82 354.85"/><rect id="Rectangle-83" data-name="Rectangle" class="cls-20" x="900.07" y="336.25" width="15.13" height="32.55"/><rect id="Rectangle-Copy-2-5" data-name="Rectangle-Copy-2" class="cls-20" x="872.53" y="329.66" width="20.94" height="23.64"/><rect id="Rectangle-84" data-name="Rectangle" class="cls-13" x="900.07" y="336.25" width="2.33" height="32.55"/><rect id="Rectangle-Copy-3-4" data-name="Rectangle-Copy-3" class="cls-20" x="921.79" y="329.66" width="20.94" height="23.64"/><rect id="Rectangle-Copy-5-3" data-name="Rectangle-Copy-5" class="cls-21" x="949.71" y="329.66" width="25.6" height="23.64"/><path id="Rectangle-85" data-name="Rectangle" class="cls-8" d="M903.17,327h15.9v11.23H891.92A11.24,11.24,0,0,1,903.17,327Z"/><path id="Rectangle-Copy-4-4" data-name="Rectangle-Copy-4" class="cls-16" d="M919.07,327h0v11.23h-9.69v-1.55A9.68,9.68,0,0,1,919.07,327Z"/><ellipse id="Oval-15" data-name="Oval" class="cls-12" cx="894.06" cy="338.18" rx="2.13" ry="2.33"/><circle id="Oval-Copy-2-2" data-name="Oval-Copy" class="cls-12" cx="898.52" cy="338.18" r="2.33"/><ellipse id="Oval-Copy-4" class="cls-13" cx="911.9" cy="338.18" rx="2.52" ry="2.33"/><circle id="Oval-Copy-2-3" data-name="Oval-Copy-2" class="cls-12" cx="903.17" cy="338.18" r="2.33"/><circle id="Oval-Copy-5-2" data-name="Oval-Copy-5" class="cls-13" cx="916.75" cy="338.18" r="2.33"/><ellipse id="Oval-Copy-3-2" data-name="Oval-Copy-3" class="cls-12" cx="907.24" cy="338.18" rx="2.13" ry="2.33"/><ellipse id="Oval-Copy-6-2" data-name="Oval-Copy-6" class="cls-12" cx="963.48" cy="338.18" rx="4.46" ry="4.26"/><path id="Rectangle-86" data-name="Rectangle" class="cls-8" d="M959.41,338.57h8.14a1.94,1.94,0,0,1,1.94,1.94h0a1.94,1.94,0,0,1-1.94,1.94h-8.14a1.94,1.94,0,0,1-1.94-1.94h0A1.94,1.94,0,0,1,959.41,338.57Z"/><polygon id="Rectangle-87" data-name="Rectangle" class="cls-9" points="959.02 342.44 967.94 342.44 966.78 346.71 960.18 346.71 959.02 342.44"/><polygon id="Rectangle-88" data-name="Rectangle" class="cls-8" points="877.57 306.8 937.69 306.8 945.45 326.94 869.82 326.94 877.57 306.8"/><polygon id="Rectangle-Copy-6-3" data-name="Rectangle-Copy-6" class="cls-16" points="937.69 306.8 971.82 306.8 979.58 326.94 945.45 326.94 937.69 306.8"/><rect id="Rectangle-89" data-name="Rectangle" class="cls-19" x="980.71" y="301.2" width="19.6" height="57.2" rx="9.6"/><rect id="Rectangle-90" data-name="Rectangle" class="cls-7" x="989.91" y="329.6" width="1.6" height="38.4"/><circle id="Oval-16" data-name="Oval" class="cls-7" cx="1024.11" cy="361.4" r="5.4"/><path id="Combined-Shape-4" data-name="Combined-Shape" class="cls-14" d="M1016.71,353.2a8,8,0,0,1,8,8,7.14,7.14,0,0,1,0,.8h0a4.81,4.81,0,0,1,4.65,6h-24.8a6.4,6.4,0,0,1,4.48-9.08A8,8,0,0,1,1016.71,353.2Z"/><path id="Rectangle-91" data-name="Rectangle" class="cls-9" d="M953.11,375.4h73.22a3.2,3.2,0,0,1,3.2,3.2v11.2a1.6,1.6,0,0,1-1.6,1.6h-73.2a1.6,1.6,0,0,1-1.6-1.6l0-14.4Z"/><path id="Rectangle-92" data-name="Rectangle" class="cls-3" d="M960.48,362.6h39.9a3.19,3.19,0,0,1,2.91,1.86l5,10.94h-55.2l4.41-10.81A3.19,3.19,0,0,1,960.48,362.6Z"/><path id="Combined-Shape-5" data-name="Combined-Shape" class="cls-16" d="M1001,365.4a.84.84,0,0,1,.49.16.88.88,0,0,1,.28.44h0l4.61,9.4H988.31v-10Zm-14.33,10h-28a1.21,1.21,0,0,1-1.12-1.61h0l2.82-7.79a.82.82,0,0,1,.28-.44.84.84,0,0,1,.49-.16h25.52Z"/><circle id="Oval-17" data-name="Oval" class="cls-22" cx="964.51" cy="393.6" r="7.4"/><circle id="Oval-18" data-name="Oval" class="cls-10" cx="964.51" cy="393.6" r="3.8"/><circle id="Oval-19" data-name="Oval" class="cls-22" cx="1016.11" cy="393.6" r="7.4"/><circle id="Oval-20" data-name="Oval" class="cls-10" cx="1016.11" cy="393.6" r="3.8"/><rect id="Rectangle-93" data-name="Rectangle" class="cls-13" x="946.31" y="375.4" width="6.8" height="14.8" rx="1.2"/><path id="Rectangle-94" data-name="Rectangle" class="cls-8" d="M510.12,391.8h80.59a3.2,3.2,0,0,0,3.2-3.2v-5.2a8.4,8.4,0,0,0-8.4-8.4H507.77a1.59,1.59,0,0,0-1.6,1.6,1.85,1.85,0,0,0,0,.23l2,13.26A2,2,0,0,0,510.12,391.8Z"/><path id="Rectangle-95" data-name="Rectangle" class="cls-16" d="M545.85,375H570l-2.49-10.08a2,2,0,0,0-1.94-1.52h-17a2,2,0,0,0-2,1.85l-.73,9.75Z"/><path id="Rectangle-96" data-name="Rectangle" class="cls-9" d="M517.32,379.8h12.59a7.6,7.6,0,0,1,7.6,7.6V393a2,2,0,0,1-2,2H511.65a1.2,1.2,0,0,1-1.2-1.2v-.13l.9-8.5A6,6,0,0,1,517.32,379.8Z"/><path id="Rectangle-Copy-5-4" data-name="Rectangle-Copy" class="cls-9" d="M573.4,379.8h14.91a7.6,7.6,0,0,1,7.6,7.6v6.4a1.2,1.2,0,0,1-1.2,1.2H567.87a1.2,1.2,0,0,1-1.2-1.2,1.06,1.06,0,0,1,0-.31l2.82-10.71A4,4,0,0,1,573.4,379.8Z"/><path id="Rectangle-97" data-name="Rectangle" class="cls-23" d="M521.24,385h5.47a6,6,0,0,1,6,6v4h-18l.57-4.72A6,6,0,0,1,521.24,385Z"/><path id="Rectangle-Copy-2-6" data-name="Rectangle-Copy-2" class="cls-23" d="M581.11,385h4.8a6,6,0,0,1,6,6v4h-16.8v-4A6,6,0,0,1,581.11,385Z"/><path id="Combined-Shape-6" data-name="Combined-Shape" class="cls-9" d="M570,375l-2.28-9.2h-3.61l.22,8.64a.77.77,0,0,0,.28.4.81.81,0,0,0,.48.16Z"/><circle id="Oval-21" data-name="Oval" class="cls-13" cx="523.91" cy="394.6" r="6.4"/><circle id="Oval-22" data-name="Oval" class="cls-10" cx="523.91" cy="394.6" r="3.2"/><circle id="Oval-23" data-name="Oval" class="cls-13" cx="583.91" cy="394.6" r="6.4"/><circle id="Oval-24" data-name="Oval" class="cls-10" cx="583.91" cy="394.6" r="3.2"/><path id="Rectangle-98" data-name="Rectangle" class="cls-9" d="M549.85,365.8h12.46a.79.79,0,0,1,.8.8v7.6a.8.8,0,0,1-.8.8H549.19a.8.8,0,0,1-.8-.8v-.07l.66-7.6A.8.8,0,0,1,549.85,365.8Z"/><path id="Rectangle-99" data-name="Rectangle" class="cls-8" d="M92.71,380.2h72.4L185,382.06a6,6,0,0,1,5.4,5.36l.56,5.41a1.6,1.6,0,0,1-1.43,1.76H94.39a1.6,1.6,0,0,1-1.6-1.6l-.08-12.8Z"/><path id="Rectangle-100" data-name="Rectangle" class="cls-9" d="M96.33,369h59.22a.78.78,0,0,1,.62.29l8.94,10.91H92.71l2.06-9.93A1.59,1.59,0,0,1,96.33,369Z"/><path id="Combined-Shape-7" data-name="Combined-Shape" class="cls-16" d="M155,370.6a1.13,1.13,0,0,1,.61.16q.16.09,7.9,9.44h-19.2v-9.6Zm-12.69,9.6H127.14a1,1,0,0,1-.35-.06,1.19,1.19,0,0,1-.8-1.5h0l2.29-7.47a.73.73,0,0,1,.35-.41,1.15,1.15,0,0,1,.62-.16h13.06Z"/><path id="Combined-Shape-Copy-2" data-name="Combined-Shape-Copy" class="cls-16" d="M95.92,380.2a.82.82,0,0,1-.51-.17.78.78,0,0,1-.3-.41l1.64-8.06a1.21,1.21,0,0,1,1.18-1h27.84a.39.39,0,0,1,.4.4.45.45,0,0,1,0,.11l-2.6,8.51h0a.78.78,0,0,1-.3.41.82.82,0,0,1-.51.17Z"/><circle id="Oval-25" data-name="Oval" class="cls-22" cx="114.71" cy="394.6" r="6.4"/><circle id="Oval-26" data-name="Oval" class="cls-10" cx="114.71" cy="394.6" r="3.2"/><circle id="Oval-27" data-name="Oval" class="cls-22" cx="171.91" cy="394.6" r="6.4"/><circle id="Oval-28" data-name="Oval" class="cls-10" cx="171.91" cy="394.6" r="3.2"/></svg>